# xmcd
#
# Track frame offsets:
#	150
#	7785
#	20970
#	35018
#	44986
#	57961
#	76014
#	89469
#	106719
#	117294
#	130704
#	144729
#
# Disc length: 2056 seconds
#
# Revision: 1
# Processed by: cddbd v1.5.2PL0 Copyright (c) Steve Scherf et al.
# Submitted via: audiograbber 1.83.01
#
DISCID=9c08060c
DTITLE=Riders In The Sky - Cowboy Jubilee
DYEAR=1988
DGENRE=Western
TTITLE0=Cowboy Jubilee
TTITLE1=Ol' Cowpoke
TTITLE2=Compadres In The Old Sierra Madres
TTITLE3=Back In The Saddle Again
TTITLE4=Desperado Trail
TTITLE5=Red River Valley
TTITLE6=Ride With The Wind
TTITLE7=Soon As The Roundup's Through
TTITLE8=On The Rhythum Range
TTITLE9=Riding Alone
TTITLE10=Ojo Callente
TTITLE11=At The End Of The Rainbow Trail
EXTD=
EXTT0=
EXTT1=
EXTT2=
EXTT3=
EXTT4=
EXTT5=
EXTT6=
EXTT7=
EXTT8=
EXTT9=
EXTT10=
EXTT11=
PLAYORDER=
